<svg width="354" height="85" viewBox="0 0 354 85" fill="none" xmlns="http://www.w3.org/2000/svg">
<line x1="94" y1="45" x2="260" y2="45" stroke="#000929" stroke-width="2"/>
<g clip-path="url(#clip0_401_27797)">
<path d="M79.5 16.7996C78.8 16.7996 78.1 16.5296 77.57 15.9996L71.05 9.47965C70.76 9.18965 70.76 8.70965 71.05 8.41965C71.34 8.12965 71.82 8.12965 72.11 8.41965L78.63 14.9396C79.11 15.4196 79.89 15.4196 80.37 14.9396L86.89 8.41965C87.18 8.12965 87.66 8.12965 87.95 8.41965C88.24 8.70965 88.24 9.18965 87.95 9.47965L81.43 15.9996C80.9 16.5296 80.2 16.7996 79.5 16.7996Z" fill="#000929"/>
<circle cx="79.5" cy="44" r="16" fill="#000929"/>
<path d="M79.7378 49V38.44H77.4818V37.08H81.3218V49H79.7378Z" fill="white"/>
<path d="M48.8046 81V69.08H53.0126C53.8019 69.08 54.4952 69.2293 55.0926 69.528C55.6899 69.8267 56.1539 70.2533 56.4846 70.808C56.8259 71.3627 56.9966 72.0133 56.9966 72.76C56.9966 73.6027 56.7832 74.3173 56.3566 74.904C55.9299 75.4907 55.3539 75.912 54.6286 76.168L57.3966 81H55.5726L52.6606 75.832L53.7006 76.44H50.3726V81H48.8046ZM50.3726 75H53.0606C53.5299 75 53.9406 74.9093 54.2926 74.728C54.6446 74.5467 54.9166 74.2853 55.1086 73.944C55.3112 73.6027 55.4126 73.208 55.4126 72.76C55.4126 72.3013 55.3112 71.9067 55.1086 71.576C54.9166 71.2347 54.6446 70.9733 54.2926 70.792C53.9406 70.6107 53.5299 70.52 53.0606 70.52H50.3726V75ZM62.4872 81.192C61.6552 81.192 60.9139 80.9947 60.2632 80.6C59.6125 80.2053 59.1005 79.6667 58.7272 78.984C58.3539 78.2907 58.1672 77.5173 58.1672 76.664C58.1672 75.8 58.3485 75.032 58.7112 74.36C59.0845 73.688 59.5859 73.16 60.2152 72.776C60.8552 72.3813 61.5699 72.184 62.3592 72.184C62.9992 72.184 63.5645 72.3013 64.0552 72.536C64.5565 72.76 64.9779 73.0693 65.3192 73.464C65.6712 73.848 65.9379 74.2907 66.1192 74.792C66.3112 75.2827 66.4072 75.7947 66.4072 76.328C66.4072 76.4453 66.3965 76.5787 66.3752 76.728C66.3645 76.8667 66.3485 77 66.3272 77.128H59.2552V75.848H65.4632L64.7592 76.424C64.8552 75.8693 64.8019 75.3733 64.5992 74.936C64.3965 74.4987 64.0979 74.152 63.7032 73.896C63.3085 73.64 62.8605 73.512 62.3592 73.512C61.8579 73.512 61.3992 73.64 60.9832 73.896C60.5672 74.152 60.2419 74.52 60.0072 75C59.7832 75.4693 59.6925 76.0293 59.7352 76.68C59.6925 77.3093 59.7885 77.864 60.0232 78.344C60.2685 78.8133 60.6099 79.1813 61.0472 79.448C61.4952 79.704 61.9805 79.832 62.5032 79.832C63.0792 79.832 63.5645 79.6987 63.9592 79.432C64.3539 79.1653 64.6739 78.824 64.9192 78.408L66.1672 79.048C65.9965 79.4427 65.7299 79.8053 65.3672 80.136C65.0152 80.456 64.5939 80.712 64.1032 80.904C63.6232 81.096 63.0845 81.192 62.4872 81.192ZM75.2433 84.2V79.16L75.4833 79.416C75.1846 79.9813 74.7473 80.4187 74.1713 80.728C73.606 81.0373 72.9713 81.192 72.2673 81.192C71.4566 81.192 70.726 80.9947 70.0753 80.6C69.4353 80.2053 68.9286 79.6667 68.5553 78.984C68.182 78.3013 67.9953 77.5387 67.9953 76.696C67.9953 75.832 68.182 75.064 68.5553 74.392C68.9286 73.7093 69.4353 73.1707 70.0753 72.776C70.726 72.3813 71.4566 72.184 72.2673 72.184C72.982 72.184 73.6166 72.3387 74.1713 72.648C74.726 72.9467 75.1633 73.352 75.4833 73.864L75.2913 74.232V72.376H76.7473V84.2H75.2433ZM72.3953 79.752C72.9393 79.752 73.4246 79.6187 73.8513 79.352C74.278 79.0853 74.614 78.7227 74.8593 78.264C75.1153 77.7947 75.2433 77.272 75.2433 76.696C75.2433 76.1093 75.1153 75.5867 74.8593 75.128C74.614 74.6587 74.278 74.2907 73.8513 74.024C73.4246 73.7573 72.9393 73.624 72.3953 73.624C71.862 73.624 71.3766 73.7627 70.9393 74.04C70.5126 74.3067 70.1766 74.6693 69.9313 75.128C69.686 75.576 69.5633 76.0987 69.5633 76.696C69.5633 77.272 69.686 77.7947 69.9313 78.264C70.1766 78.7227 70.5126 79.0853 70.9393 79.352C71.366 79.6187 71.8513 79.752 72.3953 79.752ZM82.1064 81.192C81.4878 81.192 80.9278 81.048 80.4264 80.76C79.9358 80.472 79.5518 80.072 79.2744 79.56C79.0078 79.0373 78.8744 78.44 78.8744 77.768V72.376H80.3624V77.608C80.3624 78.0347 80.4478 78.408 80.6184 78.728C80.7998 79.048 81.0451 79.2987 81.3544 79.48C81.6744 79.6613 82.0371 79.752 82.4424 79.752C82.8478 79.752 83.2051 79.6613 83.5144 79.48C83.8344 79.2987 84.0798 79.0373 84.2504 78.696C84.4318 78.3547 84.5224 77.9493 84.5224 77.48V72.376H86.0264V81H84.5704V79.32L84.8104 79.464C84.6078 80.008 84.2611 80.4347 83.7704 80.744C83.2904 81.0427 82.7358 81.192 82.1064 81.192ZM92.2997 81.192C91.4677 81.192 90.7264 80.9947 90.0757 80.6C89.425 80.2053 88.913 79.6667 88.5397 78.984C88.1664 78.2907 87.9797 77.5173 87.9797 76.664C87.9797 75.8 88.161 75.032 88.5237 74.36C88.897 73.688 89.3984 73.16 90.0277 72.776C90.6677 72.3813 91.3824 72.184 92.1717 72.184C92.8117 72.184 93.377 72.3013 93.8677 72.536C94.369 72.76 94.7904 73.0693 95.1317 73.464C95.4837 73.848 95.7504 74.2907 95.9317 74.792C96.1237 75.2827 96.2197 75.7947 96.2197 76.328C96.2197 76.4453 96.209 76.5787 96.1877 76.728C96.177 76.8667 96.161 77 96.1397 77.128H89.0677V75.848H95.2757L94.5717 76.424C94.6677 75.8693 94.6144 75.3733 94.4117 74.936C94.209 74.4987 93.9104 74.152 93.5157 73.896C93.121 73.64 92.673 73.512 92.1717 73.512C91.6704 73.512 91.2117 73.64 90.7957 73.896C90.3797 74.152 90.0544 74.52 89.8197 75C89.5957 75.4693 89.505 76.0293 89.5477 76.68C89.505 77.3093 89.601 77.864 89.8357 78.344C90.081 78.8133 90.4224 79.1813 90.8597 79.448C91.3077 79.704 91.793 79.832 92.3157 79.832C92.8917 79.832 93.377 79.6987 93.7717 79.432C94.1664 79.1653 94.4864 78.824 94.7317 78.408L95.9797 79.048C95.809 79.4427 95.5424 79.8053 95.1797 80.136C94.8277 80.456 94.4064 80.712 93.9157 80.904C93.4357 81.096 92.897 81.192 92.2997 81.192ZM101.248 81.192C100.384 81.192 99.6318 80.9787 98.9918 80.552C98.3518 80.1253 97.8985 79.5493 97.6318 78.824L98.8158 78.248C99.0611 78.76 99.3971 79.1653 99.8238 79.464C100.25 79.7627 100.725 79.912 101.248 79.912C101.717 79.912 102.106 79.8 102.416 79.576C102.725 79.352 102.88 79.0587 102.88 78.696C102.88 78.44 102.805 78.2373 102.656 78.088C102.517 77.928 102.346 77.8053 102.144 77.72C101.941 77.624 101.754 77.5547 101.584 77.512L100.288 77.144C99.5091 76.92 98.9385 76.6 98.5758 76.184C98.2238 75.768 98.0478 75.2827 98.0478 74.728C98.0478 74.216 98.1758 73.7733 98.4318 73.4C98.6985 73.016 99.0558 72.7173 99.5038 72.504C99.9625 72.2907 100.474 72.184 101.04 72.184C101.797 72.184 102.474 72.376 103.072 72.76C103.68 73.144 104.112 73.6827 104.368 74.376L103.152 74.936C102.96 74.488 102.672 74.136 102.288 73.88C101.904 73.6133 101.472 73.48 100.992 73.48C100.554 73.48 100.208 73.592 99.9518 73.816C99.6958 74.0293 99.5678 74.3013 99.5678 74.632C99.5678 74.8773 99.6318 75.08 99.7598 75.24C99.8878 75.3893 100.042 75.5067 100.224 75.592C100.405 75.6667 100.581 75.7307 100.752 75.784L102.16 76.2C102.864 76.4027 103.408 76.7173 103.792 77.144C104.186 77.5707 104.384 78.0827 104.384 78.68C104.384 79.16 104.25 79.592 103.984 79.976C103.717 80.36 103.349 80.6587 102.88 80.872C102.41 81.0853 101.866 81.192 101.248 81.192ZM109.836 81.096C108.993 81.096 108.342 80.856 107.884 80.376C107.436 79.896 107.212 79.2187 107.212 78.344V73.8H105.644V72.376H105.964C106.348 72.376 106.652 72.2587 106.876 72.024C107.1 71.7893 107.212 71.48 107.212 71.096V70.392H108.7V72.376H110.636V73.8H108.7V78.296C108.7 78.584 108.742 78.8347 108.828 79.048C108.924 79.2613 109.078 79.432 109.292 79.56C109.505 79.6773 109.788 79.736 110.14 79.736C110.214 79.736 110.305 79.7307 110.412 79.72C110.529 79.7093 110.636 79.6987 110.732 79.688V81C110.593 81.032 110.438 81.0533 110.268 81.064C110.097 81.0853 109.953 81.096 109.836 81.096Z" fill="#000929"/>
</g>
<circle cx="274.5" cy="44" r="15" stroke="#E4E3F3" stroke-width="2"/>
<path d="M271.019 49V47.912L274.315 44.344C274.966 43.6507 275.483 43.08 275.867 42.632C276.262 42.184 276.55 41.784 276.731 41.432C276.913 41.08 277.003 40.7067 277.003 40.312C277.003 39.6613 276.811 39.16 276.427 38.808C276.043 38.456 275.537 38.28 274.907 38.28C274.267 38.28 273.723 38.4667 273.275 38.84C272.827 39.2027 272.518 39.72 272.347 40.392L270.923 40.024C271.062 39.384 271.318 38.8293 271.691 38.36C272.065 37.8907 272.529 37.528 273.083 37.272C273.638 37.016 274.246 36.888 274.907 36.888C275.633 36.888 276.267 37.032 276.811 37.32C277.366 37.5973 277.798 37.9867 278.107 38.488C278.427 38.9893 278.587 39.5707 278.587 40.232C278.587 40.6693 278.497 41.096 278.315 41.512C278.134 41.928 277.867 42.3707 277.515 42.84C277.163 43.2987 276.705 43.832 276.139 44.44L273.195 47.64H278.843V49H271.019Z" fill="#8B8C93"/>
<path d="M204.664 81V69.08H206.232V79.56H211.464V81H204.664ZM213.05 81V72.376H214.538V81H213.05ZM213.05 71V69.08H214.538V71H213.05ZM219.935 81.192C219.071 81.192 218.319 80.9787 217.679 80.552C217.039 80.1253 216.586 79.5493 216.319 78.824L217.503 78.248C217.749 78.76 218.085 79.1653 218.511 79.464C218.938 79.7627 219.413 79.912 219.935 79.912C220.405 79.912 220.794 79.8 221.103 79.576C221.413 79.352 221.567 79.0587 221.567 78.696C221.567 78.44 221.493 78.2373 221.343 78.088C221.205 77.928 221.034 77.8053 220.831 77.72C220.629 77.624 220.442 77.5547 220.271 77.512L218.975 77.144C218.197 76.92 217.626 76.6 217.263 76.184C216.911 75.768 216.735 75.2827 216.735 74.728C216.735 74.216 216.863 73.7733 217.119 73.4C217.386 73.016 217.743 72.7173 218.191 72.504C218.65 72.2907 219.162 72.184 219.727 72.184C220.485 72.184 221.162 72.376 221.759 72.76C222.367 73.144 222.799 73.6827 223.055 74.376L221.839 74.936C221.647 74.488 221.359 74.136 220.975 73.88C220.591 73.6133 220.159 73.48 219.679 73.48C219.242 73.48 218.895 73.592 218.639 73.816C218.383 74.0293 218.255 74.3013 218.255 74.632C218.255 74.8773 218.319 75.08 218.447 75.24C218.575 75.3893 218.73 75.5067 218.911 75.592C219.093 75.6667 219.269 75.7307 219.439 75.784L220.847 76.2C221.551 76.4027 222.095 76.7173 222.479 77.144C222.874 77.5707 223.071 78.0827 223.071 78.68C223.071 79.16 222.938 79.592 222.671 79.976C222.405 80.36 222.037 80.6587 221.567 80.872C221.098 81.0853 220.554 81.192 219.935 81.192ZM228.523 81.096C227.681 81.096 227.03 80.856 226.571 80.376C226.123 79.896 225.899 79.2187 225.899 78.344V73.8H224.331V72.376H224.651C225.035 72.376 225.339 72.2587 225.563 72.024C225.787 71.7893 225.899 71.48 225.899 71.096V70.392H227.387V72.376H229.323V73.8H227.387V78.296C227.387 78.584 227.43 78.8347 227.515 79.048C227.611 79.2613 227.766 79.432 227.979 79.56C228.193 79.6773 228.475 79.736 228.827 79.736C228.902 79.736 228.993 79.7307 229.099 79.72C229.217 79.7093 229.323 79.6987 229.419 79.688V81C229.281 81.032 229.126 81.0533 228.955 81.064C228.785 81.0853 228.641 81.096 228.523 81.096ZM231.363 81V72.376H232.851V81H231.363ZM231.363 71V69.08H232.851V71H231.363ZM235.16 81V72.376H236.616V74.056L236.376 73.912C236.589 73.368 236.93 72.9467 237.4 72.648C237.88 72.3387 238.44 72.184 239.08 72.184C239.698 72.184 240.248 72.3227 240.728 72.6C241.218 72.8773 241.602 73.2613 241.88 73.752C242.168 74.2427 242.312 74.7973 242.312 75.416V81H240.808V75.896C240.808 75.416 240.722 75.0107 240.552 74.68C240.381 74.3493 240.136 74.0933 239.816 73.912C239.506 73.72 239.149 73.624 238.744 73.624C238.338 73.624 237.976 73.72 237.656 73.912C237.346 74.0933 237.101 74.3547 236.92 74.696C236.738 75.0267 236.648 75.4267 236.648 75.896V81H235.16ZM248.553 84.52C247.945 84.52 247.38 84.424 246.857 84.232C246.345 84.04 245.902 83.7733 245.529 83.432C245.166 83.1013 244.889 82.712 244.697 82.264L246.089 81.624C246.238 82.0293 246.521 82.3707 246.937 82.648C247.364 82.936 247.897 83.08 248.537 83.08C249.028 83.08 249.47 82.984 249.865 82.792C250.27 82.6107 250.59 82.3333 250.825 81.96C251.06 81.5973 251.177 81.1547 251.177 80.632V78.696L251.449 78.984C251.15 79.5707 250.718 80.0187 250.153 80.328C249.598 80.6373 248.985 80.792 248.313 80.792C247.502 80.792 246.777 80.6053 246.137 80.232C245.497 79.848 244.996 79.3307 244.633 78.68C244.27 78.0187 244.089 77.288 244.089 76.488C244.089 75.6773 244.27 74.9467 244.633 74.296C244.996 73.6453 245.492 73.1333 246.121 72.76C246.761 72.376 247.486 72.184 248.297 72.184C248.969 72.184 249.577 72.3387 250.121 72.648C250.676 72.9467 251.118 73.3627 251.449 73.896L251.225 74.296V72.376H252.681V80.632C252.681 81.3787 252.505 82.0453 252.153 82.632C251.801 83.2187 251.31 83.6773 250.681 84.008C250.062 84.3493 249.353 84.52 248.553 84.52ZM248.441 79.352C248.953 79.352 249.412 79.224 249.817 78.968C250.233 78.712 250.564 78.3707 250.809 77.944C251.054 77.5067 251.177 77.0213 251.177 76.488C251.177 75.9653 251.054 75.4853 250.809 75.048C250.564 74.6107 250.233 74.264 249.817 74.008C249.412 73.752 248.953 73.624 248.441 73.624C247.918 73.624 247.444 73.752 247.017 74.008C246.59 74.264 246.254 74.6107 246.009 75.048C245.774 75.4747 245.657 75.9547 245.657 76.488C245.657 77.0213 245.774 77.5067 246.009 77.944C246.254 78.3707 246.585 78.712 247.001 78.968C247.428 79.224 247.908 79.352 248.441 79.352ZM257.93 81V69.08H259.498V81H257.93ZM261.972 81V72.376H263.428V74.056L263.188 73.912C263.402 73.368 263.743 72.9467 264.212 72.648C264.692 72.3387 265.252 72.184 265.892 72.184C266.511 72.184 267.06 72.3227 267.54 72.6C268.031 72.8773 268.415 73.2613 268.692 73.752C268.98 74.2427 269.124 74.7973 269.124 75.416V81H267.62V75.896C267.62 75.416 267.535 75.0107 267.364 74.68C267.194 74.3493 266.948 74.0933 266.628 73.912C266.319 73.72 265.962 73.624 265.556 73.624C265.151 73.624 264.788 73.72 264.468 73.912C264.159 74.0933 263.914 74.3547 263.732 74.696C263.551 75.0267 263.46 75.4267 263.46 75.896V81H261.972ZM272.166 81V73.8H270.518V72.376H272.166V71.768C272.166 71.1493 272.299 70.6267 272.566 70.2C272.843 69.7733 273.206 69.448 273.654 69.224C274.112 69 274.619 68.888 275.174 68.888C275.291 68.888 275.419 68.8987 275.558 68.92C275.707 68.9307 275.83 68.9467 275.926 68.968V70.296C275.84 70.2747 275.739 70.264 275.622 70.264C275.504 70.2533 275.414 70.248 275.35 70.248C274.859 70.248 274.454 70.3653 274.134 70.6C273.824 70.8347 273.67 71.224 273.67 71.768V72.376H275.718V73.8H273.67V81H272.166ZM281.303 81.192C280.471 81.192 279.719 81 279.047 80.616C278.375 80.2213 277.841 79.6827 277.447 79C277.052 78.3173 276.855 77.544 276.855 76.68C276.855 75.816 277.047 75.048 277.431 74.376C277.825 73.704 278.359 73.1707 279.031 72.776C279.703 72.3813 280.46 72.184 281.303 72.184C282.135 72.184 282.887 72.3813 283.559 72.776C284.231 73.16 284.759 73.688 285.143 74.36C285.537 75.032 285.735 75.8053 285.735 76.68C285.735 77.5547 285.532 78.3333 285.127 79.016C284.721 79.688 284.183 80.2213 283.511 80.616C282.849 81 282.113 81.192 281.303 81.192ZM281.303 79.752C281.836 79.752 282.316 79.6187 282.743 79.352C283.18 79.0853 283.521 78.7173 283.767 78.248C284.023 77.7787 284.151 77.256 284.151 76.68C284.151 76.0933 284.023 75.576 283.767 75.128C283.521 74.6693 283.18 74.3067 282.743 74.04C282.316 73.7627 281.836 73.624 281.303 73.624C280.759 73.624 280.268 73.7627 279.831 74.04C279.404 74.3067 279.063 74.6693 278.807 75.128C278.551 75.576 278.423 76.0933 278.423 76.68C278.423 77.256 278.551 77.7787 278.807 78.248C279.063 78.7173 279.404 79.0853 279.831 79.352C280.268 79.6187 280.759 79.752 281.303 79.752ZM287.675 81V72.376H289.131V73.96L288.971 73.736C289.174 73.2453 289.483 72.8827 289.899 72.648C290.315 72.4027 290.822 72.28 291.419 72.28H291.947V73.688H291.195C290.587 73.688 290.097 73.88 289.723 74.264C289.35 74.6373 289.163 75.1707 289.163 75.864V81H287.675ZM293.269 81V72.376H294.725V74.136L294.517 73.864C294.731 73.32 295.072 72.904 295.541 72.616C296.011 72.328 296.539 72.184 297.125 72.184C297.797 72.184 298.4 72.3707 298.933 72.744C299.477 73.1173 299.851 73.608 300.053 74.216L299.637 74.232C299.861 73.56 300.24 73.0533 300.773 72.712C301.307 72.36 301.899 72.184 302.549 72.184C303.147 72.184 303.685 72.3227 304.165 72.6C304.656 72.8773 305.045 73.2613 305.333 73.752C305.621 74.2427 305.765 74.7973 305.765 75.416V81H304.261V75.896C304.261 75.416 304.176 75.0107 304.005 74.68C303.835 74.3493 303.6 74.0933 303.301 73.912C303.013 73.72 302.672 73.624 302.277 73.624C301.893 73.624 301.547 73.72 301.237 73.912C300.939 74.0933 300.699 74.3547 300.517 74.696C300.347 75.0267 300.261 75.4267 300.261 75.896V81H298.757V75.896C298.757 75.416 298.672 75.0107 298.501 74.68C298.331 74.3493 298.096 74.0933 297.797 73.912C297.509 73.72 297.168 73.624 296.773 73.624C296.389 73.624 296.043 73.72 295.733 73.912C295.435 74.0933 295.195 74.3547 295.013 74.696C294.843 75.0267 294.757 75.4267 294.757 75.896V81H293.269ZM310.407 81.192C309.841 81.192 309.34 81.0907 308.903 80.888C308.476 80.6747 308.14 80.3867 307.895 80.024C307.649 79.6507 307.527 79.224 307.527 78.744C307.527 78.2853 307.623 77.8747 307.815 77.512C308.017 77.1387 308.327 76.824 308.743 76.568C309.169 76.312 309.703 76.1307 310.343 76.024L313.543 75.496V76.744L310.679 77.224C310.124 77.32 309.719 77.496 309.463 77.752C309.217 78.008 309.095 78.3227 309.095 78.696C309.095 79.048 309.233 79.3413 309.511 79.576C309.799 79.8107 310.156 79.928 310.583 79.928C311.127 79.928 311.596 79.816 311.991 79.592C312.396 79.3573 312.711 79.0427 312.935 78.648C313.169 78.2533 313.287 77.816 313.287 77.336V75.144C313.287 74.6747 313.111 74.296 312.759 74.008C312.417 73.7093 311.964 73.56 311.399 73.56C310.908 73.56 310.471 73.688 310.087 73.944C309.713 74.1893 309.436 74.52 309.255 74.936L307.959 74.264C308.119 73.8693 308.375 73.5173 308.727 73.208C309.079 72.888 309.489 72.6373 309.959 72.456C310.428 72.2747 310.919 72.184 311.431 72.184C312.092 72.184 312.673 72.312 313.175 72.568C313.676 72.8133 314.065 73.16 314.343 73.608C314.631 74.0453 314.775 74.5573 314.775 75.144V81H313.319V79.368L313.591 79.464C313.409 79.8053 313.164 80.104 312.855 80.36C312.545 80.616 312.183 80.8187 311.767 80.968C311.351 81.1173 310.897 81.192 310.407 81.192ZM320.429 81.096C319.587 81.096 318.936 80.856 318.477 80.376C318.029 79.896 317.805 79.2187 317.805 78.344V73.8H316.237V72.376H316.557C316.941 72.376 317.245 72.2587 317.469 72.024C317.693 71.7893 317.805 71.48 317.805 71.096V70.392H319.293V72.376H321.229V73.8H319.293V78.296C319.293 78.584 319.336 78.8347 319.421 79.048C319.517 79.2613 319.672 79.432 319.885 79.56C320.099 79.6773 320.381 79.736 320.733 79.736C320.808 79.736 320.899 79.7307 321.005 79.72C321.123 79.7093 321.229 79.6987 321.325 79.688V81C321.187 81.032 321.032 81.0533 320.861 81.064C320.691 81.0853 320.547 81.096 320.429 81.096ZM323.269 81V72.376H324.757V81H323.269ZM323.269 71V69.08H324.757V71H323.269ZM331.162 81.192C330.33 81.192 329.578 81 328.906 80.616C328.234 80.2213 327.701 79.6827 327.306 79C326.911 78.3173 326.714 77.544 326.714 76.68C326.714 75.816 326.906 75.048 327.29 74.376C327.685 73.704 328.218 73.1707 328.89 72.776C329.562 72.3813 330.319 72.184 331.162 72.184C331.994 72.184 332.746 72.3813 333.418 72.776C334.09 73.16 334.618 73.688 335.002 74.36C335.397 75.032 335.594 75.8053 335.594 76.68C335.594 77.5547 335.391 78.3333 334.986 79.016C334.581 79.688 334.042 80.2213 333.37 80.616C332.709 81 331.973 81.192 331.162 81.192ZM331.162 79.752C331.695 79.752 332.175 79.6187 332.602 79.352C333.039 79.0853 333.381 78.7173 333.626 78.248C333.882 77.7787 334.01 77.256 334.01 76.68C334.01 76.0933 333.882 75.576 333.626 75.128C333.381 74.6693 333.039 74.3067 332.602 74.04C332.175 73.7627 331.695 73.624 331.162 73.624C330.618 73.624 330.127 73.7627 329.69 74.04C329.263 74.3067 328.922 74.6693 328.666 75.128C328.41 75.576 328.282 76.0933 328.282 76.68C328.282 77.256 328.41 77.7787 328.666 78.248C328.922 78.7173 329.263 79.0853 329.69 79.352C330.127 79.6187 330.618 79.752 331.162 79.752ZM337.535 81V72.376H338.991V74.056L338.751 73.912C338.964 73.368 339.305 72.9467 339.775 72.648C340.255 72.3387 340.815 72.184 341.455 72.184C342.073 72.184 342.623 72.3227 343.103 72.6C343.593 72.8773 343.977 73.2613 344.255 73.752C344.543 74.2427 344.687 74.7973 344.687 75.416V81H343.183V75.896C343.183 75.416 343.097 75.0107 342.927 74.68C342.756 74.3493 342.511 74.0933 342.191 73.912C341.881 73.72 341.524 73.624 341.119 73.624C340.713 73.624 340.351 73.72 340.031 73.912C339.721 74.0933 339.476 74.3547 339.295 74.696C339.113 75.0267 339.023 75.4267 339.023 75.896V81H337.535Z" fill="#8B8C93"/>
<defs>
<clipPath id="clip0_401_27797">
<rect width="159" height="84" fill="white"/>
</clipPath>
</defs>
</svg>
