<svg width="118" height="32" viewBox="0 0 118 32" fill="none" xmlns="http://www.w3.org/2000/svg">
<path d="M37.44 24V9.09997H47.34V11.5H40.16V15.32H46.94V17.72H40.16V21.6H47.34V24H37.44ZM53.2545 24.24C52.0945 24.24 51.0812 23.9666 50.2145 23.42C49.3612 22.86 48.7745 22.1066 48.4545 21.16L50.4145 20.22C50.6945 20.8333 51.0812 21.3133 51.5745 21.66C52.0812 22.0066 52.6412 22.18 53.2545 22.18C53.7345 22.18 54.1145 22.0733 54.3945 21.86C54.6745 21.6466 54.8145 21.3666 54.8145 21.02C54.8145 20.8066 54.7545 20.6333 54.6345 20.5C54.5279 20.3533 54.3745 20.2333 54.1745 20.14C53.9879 20.0333 53.7812 19.9466 53.5545 19.88L51.7745 19.38C50.8545 19.1133 50.1545 18.7066 49.6745 18.16C49.2079 17.6133 48.9745 16.9666 48.9745 16.22C48.9745 15.5533 49.1412 14.9733 49.4745 14.48C49.8212 13.9733 50.2945 13.58 50.8945 13.3C51.5079 13.02 52.2079 12.88 52.9945 12.88C54.0212 12.88 54.9279 13.1266 55.7145 13.62C56.5012 14.1133 57.0612 14.8066 57.3945 15.7L55.3945 16.64C55.2079 16.1466 54.8945 15.7533 54.4545 15.46C54.0145 15.1666 53.5212 15.02 52.9745 15.02C52.5345 15.02 52.1879 15.12 51.9345 15.32C51.6812 15.52 51.5545 15.78 51.5545 16.1C51.5545 16.3 51.6079 16.4733 51.7145 16.62C51.8212 16.7666 51.9679 16.8866 52.1545 16.98C52.3545 17.0733 52.5812 17.16 52.8345 17.24L54.5745 17.76C55.4679 18.0266 56.1545 18.4266 56.6345 18.96C57.1279 19.4933 57.3745 20.1466 57.3745 20.92C57.3745 21.5733 57.2012 22.1533 56.8545 22.66C56.5079 23.1533 56.0279 23.54 55.4145 23.82C54.8012 24.1 54.0812 24.24 53.2545 24.24ZM64.348 24.12C63.1213 24.12 62.168 23.7866 61.488 23.12C60.8213 22.44 60.488 21.4866 60.488 20.26V15.46H58.608V13.12H58.808C59.3413 13.12 59.7546 12.98 60.048 12.7C60.3413 12.42 60.488 12.0133 60.488 11.48V10.64H63.108V13.12H65.608V15.46H63.108V20.12C63.108 20.48 63.168 20.7866 63.288 21.04C63.4213 21.2933 63.6213 21.4866 63.888 21.62C64.168 21.7533 64.5213 21.82 64.948 21.82C65.0413 21.82 65.148 21.8133 65.268 21.8C65.4013 21.7866 65.528 21.7733 65.648 21.76V24C65.4613 24.0266 65.248 24.0533 65.008 24.08C64.768 24.1066 64.548 24.12 64.348 24.12ZM70.9106 24.24C70.1506 24.24 69.4906 24.1133 68.9306 23.86C68.3706 23.6066 67.9373 23.2466 67.6306 22.78C67.324 22.3 67.1706 21.7466 67.1706 21.12C67.1706 20.52 67.304 19.9866 67.5706 19.52C67.8373 19.04 68.2506 18.64 68.8106 18.32C69.3706 18 70.0773 17.7733 70.9306 17.64L74.4906 17.06V19.06L71.4306 19.58C70.9106 19.6733 70.524 19.84 70.2706 20.08C70.0173 20.32 69.8906 20.6333 69.8906 21.02C69.8906 21.3933 70.0306 21.6933 70.3106 21.92C70.604 22.1333 70.964 22.24 71.3906 22.24C71.9373 22.24 72.4173 22.1266 72.8306 21.9C73.2573 21.66 73.584 21.3333 73.8106 20.92C74.0506 20.5066 74.1706 20.0533 74.1706 19.56V16.76C74.1706 16.2933 73.984 15.9066 73.6106 15.6C73.2506 15.28 72.7706 15.12 72.1706 15.12C71.6106 15.12 71.1106 15.2733 70.6706 15.58C70.244 15.8733 69.9306 16.2666 69.7306 16.76L67.5906 15.72C67.804 15.1466 68.1373 14.6533 68.5906 14.24C69.0573 13.8133 69.604 13.48 70.2306 13.24C70.8573 13 71.5373 12.88 72.2706 12.88C73.164 12.88 73.9506 13.0466 74.6306 13.38C75.3106 13.7 75.8373 14.1533 76.2106 14.74C76.5973 15.3133 76.7906 15.9866 76.7906 16.76V24H74.3106V22.14L74.8706 22.1C74.5906 22.5666 74.2573 22.96 73.8706 23.28C73.484 23.5866 73.044 23.8266 72.5506 24C72.0573 24.16 71.5106 24.24 70.9106 24.24ZM83.9769 24.12C82.7502 24.12 81.7969 23.7866 81.1169 23.12C80.4502 22.44 80.1169 21.4866 80.1169 20.26V15.46H78.2369V13.12H78.4369C78.9702 13.12 79.3835 12.98 79.6769 12.7C79.9702 12.42 80.1169 12.0133 80.1169 11.48V10.64H82.7369V13.12H85.2369V15.46H82.7369V20.12C82.7369 20.48 82.7969 20.7866 82.9169 21.04C83.0502 21.2933 83.2502 21.4866 83.5169 21.62C83.7969 21.7533 84.1502 21.82 84.5769 21.82C84.6702 21.82 84.7769 21.8133 84.8969 21.8C85.0302 21.7866 85.1569 21.7733 85.2769 21.76V24C85.0902 24.0266 84.8769 24.0533 84.6369 24.08C84.3969 24.1066 84.1769 24.12 83.9769 24.12ZM92.3409 24.24C91.2209 24.24 90.2409 23.9866 89.4009 23.48C88.5609 22.9733 87.9076 22.2866 87.4409 21.42C86.9743 20.5533 86.7409 19.5933 86.7409 18.54C86.7409 17.4466 86.9743 16.48 87.4409 15.64C87.9209 14.7866 88.5676 14.1133 89.3809 13.62C90.2076 13.1266 91.1276 12.88 92.1409 12.88C92.9943 12.88 93.7409 13.02 94.3809 13.3C95.0343 13.58 95.5876 13.9666 96.0409 14.46C96.4943 14.9533 96.8409 15.52 97.0809 16.16C97.3209 16.7866 97.4409 17.4666 97.4409 18.2C97.4409 18.3866 97.4276 18.58 97.4009 18.78C97.3876 18.98 97.3543 19.1533 97.3009 19.3H88.9009V17.3H95.8209L94.5809 18.24C94.7009 17.6266 94.6676 17.08 94.4809 16.6C94.3076 16.12 94.0143 15.74 93.6009 15.46C93.2009 15.18 92.7143 15.04 92.1409 15.04C91.5943 15.04 91.1076 15.18 90.6809 15.46C90.2543 15.7266 89.9276 16.1266 89.7009 16.66C89.4876 17.18 89.4076 17.8133 89.4609 18.56C89.4076 19.2266 89.4943 19.82 89.7209 20.34C89.9609 20.8466 90.3076 21.24 90.7609 21.52C91.2276 21.8 91.7609 21.94 92.3609 21.94C92.9609 21.94 93.4676 21.8133 93.8809 21.56C94.3076 21.3066 94.6409 20.9666 94.8809 20.54L97.0009 21.58C96.7876 22.1 96.4543 22.56 96.0009 22.96C95.5476 23.36 95.0076 23.6733 94.3809 23.9C93.7676 24.1266 93.0876 24.24 92.3409 24.24ZM99.427 24V13.12H101.887V15.54L101.687 15.18C101.94 14.3666 102.334 13.8 102.867 13.48C103.414 13.16 104.067 13 104.827 13H105.467V15.32H104.527C103.78 15.32 103.18 15.5533 102.727 16.02C102.274 16.4733 102.047 17.1133 102.047 17.94V24H99.427ZM108.228 28.42C107.934 28.42 107.648 28.3933 107.368 28.34C107.088 28.3 106.834 28.2266 106.608 28.12V25.92C106.781 25.96 106.988 26 107.228 26.04C107.481 26.08 107.714 26.1 107.928 26.1C108.528 26.1 108.961 25.96 109.228 25.68C109.508 25.4 109.754 25.0333 109.968 24.58L110.688 22.9L110.648 25.1L105.908 13.12H108.728L112.048 21.96H111.048L114.348 13.12H117.188L112.448 25.1C112.168 25.8066 111.828 26.4066 111.428 26.9C111.027 27.3933 110.561 27.7666 110.028 28.02C109.508 28.2866 108.908 28.42 108.228 28.42Z" fill="#000929"/>
<g clip-path="url(#clip0_399_15649)">
<path d="M25.335 11.6132L18.2243 6.08252C17.6003 5.59707 16.8323 5.3335 16.0417 5.3335C15.2511 5.3335 14.483 5.59707 13.859 6.08252L6.747 11.6132C6.31959 11.9456 5.97379 12.3712 5.73601 12.8577C5.49822 13.3441 5.37474 13.8784 5.375 14.4199V24.0199C5.375 24.7271 5.65595 25.4054 6.15605 25.9055C6.65615 26.4056 7.33442 26.6865 8.04167 26.6865H24.0417C24.7489 26.6865 25.4272 26.4056 25.9273 25.9055C26.4274 25.4054 26.7083 24.7271 26.7083 24.0199V14.4199C26.7083 13.3225 26.2017 12.2865 25.335 11.6132Z" fill="#000929" stroke="#000929" stroke-width="3" stroke-linecap="round" stroke-linejoin="round"/>
<path d="M21.3346 20C18.388 21.7773 13.612 21.7773 10.668 20" stroke="#F9FAFB" stroke-width="3" stroke-linecap="round" stroke-linejoin="round"/>
</g>
<defs>
<clipPath id="clip0_399_15649">
<rect width="32" height="32" fill="white"/>
</clipPath>
</defs>
</svg>
