<svg width="32" height="32" viewBox="0 0 32 32" fill="none" xmlns="http://www.w3.org/2000/svg">
<g clip-path="url(#clip0_399_15651)">
<path d="M25.335 11.6132L18.2243 6.08252C17.6003 5.59707 16.8323 5.3335 16.0417 5.3335C15.2511 5.3335 14.483 5.59707 13.859 6.08252L6.747 11.6132C6.31959 11.9456 5.97379 12.3712 5.73601 12.8577C5.49822 13.3441 5.37474 13.8784 5.375 14.4199V24.0199C5.375 24.7271 5.65595 25.4054 6.15605 25.9055C6.65615 26.4056 7.33442 26.6865 8.04167 26.6865H24.0417C24.7489 26.6865 25.4272 26.4056 25.9273 25.9055C26.4274 25.4054 26.7083 24.7271 26.7083 24.0199V14.4199C26.7083 13.3225 26.2017 12.2865 25.335 11.6132Z" fill="#000929" stroke="#000929" stroke-width="3" stroke-linecap="round" stroke-linejoin="round"/>
<path d="M21.3346 20C18.388 21.7773 13.612 21.7773 10.668 20" stroke="#F9FAFB" stroke-width="3" stroke-linecap="round" stroke-linejoin="round"/>
</g>
<defs>
<clipPath id="clip0_399_15651">
<rect width="32" height="32" fill="white"/>
</clipPath>
</defs>
</svg>
